<svg width="64" height="52" viewBox="0 0 64 52" fill="none" xmlns="http://www.w3.org/2000/svg">
  <path d="M46.9571 12.6646C47.0333 12.2833 47.2861 11.968 47.6297 11.8256C48.9487 11.2792 50.0581 10.3267 50.838 9.07165C51.0266 8.7682 51.3388 8.57597 51.6819 8.55153C52.0239 8.52819 52.3587 8.67415 52.5839 8.94794C53.0189 9.47699 63.2453 22.111 63.9989 40.1027C64.0226 40.6681 63.6557 41.1686 63.1315 41.2865C63.0549 41.3038 62.9782 41.3122 62.9025 41.3122C62.4601 41.3122 62.0503 41.0283 61.8824 40.5789C61.8648 40.5319 60.1015 35.8287 57.4117 30.1677C53.874 22.7224 50.3605 17.0344 47.251 13.7187C46.9912 13.4422 46.8807 13.0459 46.9571 12.6646Z" fill="#045F6A"/>
  <path d="M51.2 26.6277C51.2 40.1986 39.7385 51.2 25.6 51.2C11.4615 51.2 0 40.1986 0 26.6277C0 13.0567 11.4615 2.05533 25.6 2.05533C39.7385 2.05533 51.2 13.0567 51.2 26.6277Z" fill="#045F6A"/>
  <path d="M51.2 25.6C51.2 37.3821 41.6487 46.9333 29.8667 46.9333C18.0846 46.9333 8.53333 37.3821 8.53333 25.6C8.53333 13.8179 18.0846 4.26666 29.8667 4.26666C41.6487 4.26666 51.2 13.8179 51.2 25.6Z" fill="#00A5B9"/>
  <path d="M59.7333 12.2862C59.7333 19.0716 54.0026 24.5723 46.9333 24.5723C39.8641 24.5723 34.1333 19.0716 34.1333 12.2862C34.1333 5.5007 39.8641 0 46.9333 0C54.0026 0 59.7333 5.5007 59.7333 12.2862Z" fill="#045F6A"/>
  <path d="M59.7333 14.9333C59.7333 20.8244 54.9577 25.6 49.0667 25.6C43.1756 25.6 38.4 20.8244 38.4 14.9333C38.4 9.04229 43.1756 4.26666 49.0667 4.26666C54.9577 4.26666 59.7333 9.04229 59.7333 14.9333Z" fill="#00A5B9"/>
  <path d="M51.2002 17.0667C53.5529 17.0667 55.4667 15.1528 55.4667 12.8C55.4667 10.4472 53.5529 8.53333 51.2002 8.53333C48.8475 8.53333 46.9333 10.4472 46.9333 12.8C46.9342 15.1523 48.848 17.0667 51.2002 17.0667Z" fill="white"/>
</svg>
